# Blender v2.92.0 OBJ File: 'robot01.blend'
# www.blender.org
mtllib robot01.mtl
o Cube
v 1.000000 2.000000 -1.000000
v 1.000000 0.000000 -1.000000
v 1.000000 2.000000 1.000000
v 1.000000 0.000000 1.000000
v -1.000000 2.000000 -1.000000
v -1.000000 0.000000 -1.000000
v -1.000000 2.000000 1.000000
v -1.000000 0.000000 1.000000
v 1.000000 1.000000 -1.000000
v -1.000000 1.000000 1.000000
v 1.000000 1.000000 1.000000
v -1.000000 1.000000 -1.000000
v 1.000000 1.000000 2.000000
v 1.000000 0.000000 2.000000
v -1.000000 0.000000 2.000000
v -1.000000 1.000000 2.000000
vt 0.875000 0.500000
vt 0.625000 0.750000
vt 0.625000 0.500000
vt 0.500000 1.000000
vt 0.500000 0.750000
vt 0.625000 0.000000
vt 0.500000 0.250000
vt 0.500000 0.000000
vt 0.375000 0.500000
vt 0.125000 0.750000
vt 0.125000 0.500000
vt 0.500000 0.500000
vt 0.625000 0.250000
vt 0.375000 0.250000
vt 0.375000 0.750000
vt 0.375000 0.000000
vt 0.750000 0.312500
vt 0.500000 0.437500
vt 0.500000 0.312500
vt 0.500000 0.750000
vt 0.375000 1.000000
vt 0.375000 0.750000
vt 0.500000 0.625000
vt 0.375000 0.375000
vt 0.500000 0.375000
vt 0.687500 0.687500
vt 0.562500 0.812500
vt 0.562500 0.687500
vt 0.562500 0.250000
vt 0.687500 0.125000
vt 0.687500 0.250000
vt 0.875000 0.750000
vt 0.625000 1.000000
vt 0.750000 0.437500
vt 0.500000 1.000000
vt 0.375000 0.625000
vt 0.687500 0.812500
vt 0.562500 0.125000
vn 0.0000 1.0000 0.0000
vn 0.0000 0.0000 1.0000
vn -1.0000 0.0000 0.0000
vn 0.0000 -1.0000 0.0000
vn 1.0000 0.0000 0.0000
vn 0.0000 0.0000 -1.0000
usemtl Material
s off
f 5/1/1 3/2/1 1/3/1
f 3/2/2 10/4/2 11/5/2
f 7/6/3 12/7/3 10/8/3
f 2/9/4 8/10/4 6/11/4
f 1/3/5 11/5/5 9/12/5
f 5/13/6 9/12/6 12/7/6
f 12/7/6 2/9/6 6/14/6
f 9/12/5 4/15/5 2/9/5
f 10/8/3 6/14/3 8/16/3
f 4/17/4 15/18/4 8/19/4
f 13/20/2 15/21/2 14/22/2
f 10/23/1 13/24/1 11/25/1
f 11/26/5 14/27/5 4/28/5
f 8/29/3 16/30/3 10/31/3
f 5/1/1 7/32/1 3/2/1
f 3/2/2 7/33/2 10/4/2
f 7/6/3 5/13/3 12/7/3
f 2/9/4 4/15/4 8/10/4
f 1/3/5 3/2/5 11/5/5
f 5/13/6 1/3/6 9/12/6
f 12/7/6 9/12/6 2/9/6
f 9/12/5 11/5/5 4/15/5
f 10/8/3 12/7/3 6/14/3
f 4/17/4 14/34/4 15/18/4
f 13/20/2 16/35/2 15/21/2
f 10/23/1 16/36/1 13/24/1
f 11/26/5 13/37/5 14/27/5
f 8/29/3 15/38/3 16/30/3
